<?xml version="1.0" encoding="utf-8"?>
<!-- Generator: Adobe Illustrator 15.1.0, SVG Export Plug-In . SVG Version: 6.00 Build 0)  -->
<!DOCTYPE svg PUBLIC "-//W3C//DTD SVG 1.1//EN" "http://www.w3.org/Graphics/SVG/1.1/DTD/svg11.dtd">
<svg version="1.1" id="Ebene_1" xmlns="http://www.w3.org/2000/svg" xmlns:xlink="http://www.w3.org/1999/xlink" x="0px" y="0px"
	 width="32px" height="32px" viewBox="0 0 32 32" enable-background="new 0 0 32 32" xml:space="preserve">
<g>
	<g>
		<path fill-rule="evenodd" clip-rule="evenodd" fill="#FFFFFF" d="M31.576,0c0,10.333,0,20.667,0,30.999
			c-10.477,0-20.954,0-31.431,0C0.432,20.81-0.428,9.473,0.576,0C10.91,0,21.242,0,31.576,0z M4.881,9.042
			c0.757,0.248,2.53-0.521,2.583,0.431c-0.772,3.791,0.396,9.36,0.43,13.778c-1.004,0-2.009,0-3.014,0c0,1.005,0,2.01,0,3.014
			c2.638,0.951,6.993,0.184,10.334,0.432c0-1.148,0-2.296,0-3.445c-1.103-0.045-2.053-0.243-2.584-0.861c0-1.722,0-3.443,0-5.167
			c2.348,0.194,3.538-0.767,6.029-0.43c-0.225,2.377,0.246,4.059,0.43,6.028c-1.317-0.313-1.266,0.741-2.583,0.43
			c0.261,1.031,0.618,1.964,0.431,3.445c4.119,0.718,5.977-0.021,9.902,0c0-1.148,0-2.296,0-3.445
			c-0.58-0.854-3.006,0.136-3.014-1.292c0-4.305,0-8.611,0-12.917c0.556-0.593,1.87-0.426,3.014-0.43c0-1.005,0-2.01,0-3.014
			c-2.788-1.102-6.889-0.079-9.902,0c0,1.148,0,2.296,0,3.444c0.625,0.236,2.225-0.503,2.152,0.431
			c-0.271,1.309,0.552,3.708-0.43,4.306c-2.01,0-4.02,0-6.029,0c0-1.579,0-3.157,0-4.736c1.062,0.057,2.075,0.065,2.584-0.43
			c0-0.861,0-1.723,0-2.583c-3.871-0.777-6.6-0.475-10.334-0.861C3.975,6.125,5.335,7.243,4.881,9.042z"/>
		<path fill-rule="evenodd" clip-rule="evenodd" d="M4.881,5.167c3.734,0.386,6.463,0.084,10.334,0.861c0,0.861,0,1.722,0,2.583
			c-0.509,0.496-1.522,0.487-2.584,0.43c0,1.579,0,3.157,0,4.736c2.009,0,4.019,0,6.029,0c0.981-0.597,0.159-2.997,0.43-4.306
			c0.072-0.934-1.527-0.195-2.152-0.431c0-1.148,0-2.296,0-3.444c3.014-0.079,7.114-1.102,9.902,0c0,1.004,0,2.009,0,3.014
			c-1.144,0.004-2.458-0.163-3.014,0.43c0,4.306,0,8.612,0,12.917c0.008,1.428,2.434,0.438,3.014,1.292c0,1.149,0,2.297,0,3.445
			c-3.926-0.021-5.783,0.718-9.902,0c0.188-1.481-0.17-2.414-0.431-3.445c1.317,0.312,1.266-0.743,2.583-0.43
			c-0.184-1.97-0.654-3.651-0.43-6.028c-2.491-0.337-3.681,0.624-6.029,0.43c0,1.724,0,3.445,0,5.167
			c0.531,0.618,1.481,0.816,2.584,0.861c0,1.149,0,2.297,0,3.445c-3.341-0.248-7.696,0.52-10.334-0.432c0-1.004,0-2.009,0-3.014
			c1.005,0,2.009,0,3.014,0c-0.035-4.418-1.203-9.987-0.43-13.778C7.412,8.521,5.638,9.289,4.881,9.042
			C5.335,7.243,3.975,6.125,4.881,5.167z"/>
	</g>
</g>
</svg>
